<?xml version="1.0" encoding="UTF-8"?>
<svg width="14px" height="20px" viewBox="0 0 14 20" version="1.1" xmlns="http://www.w3.org/2000/svg" xmlns:xlink="http://www.w3.org/1999/xlink">
    <title>right copy</title>
    <g id="Page-1" stroke="none" stroke-width="1" fill="none" fill-rule="evenodd">
        <g id="interna" transform="translate(-120.000000, -228.000000)" fill="#7E7E7E" fill-rule="nonzero">
            <g id="right-copy" transform="translate(126.911011, 238.410492) rotate(-90.000000) translate(-126.911011, -238.410492) translate(117.411011, 231.910492)">
                <path d="M18.8840194,6.21277959 L12.9465237,0.119028105 C12.7918891,-0.0396760351 12.541401,-0.0396760351 12.3868034,0.119028105 C12.2321688,0.277732246 12.2321688,0.534812386 12.3868034,0.693478441 L17.6486121,6.09376101 L0.395845413,6.09376101 C0.177048698,6.09376101 0,6.27546906 0,6.5000238 C0,6.72457855 0.177048698,6.9062866 0.395845413,6.9062866 L17.6486121,6.9062866 L12.3868034,12.3065311 C12.2321688,12.4652352 12.2321688,12.7223154 12.3868034,12.8809814 C12.4641022,12.9603144 12.5654107,13 12.6666821,13 C12.7679535,13 12.8692249,12.9603144 12.9465608,12.8809814 L18.8840565,6.78722993 C19.038654,6.62856387 19.038654,6.37148373 18.8840194,6.21277959 Z" id="Path"></path>
            </g>
        </g>
    </g>
</svg>