<?xml version="1.0" encoding="UTF-8"?>
<svg width="15px" height="22px" viewBox="0 0 15 22" version="1.1" xmlns="http://www.w3.org/2000/svg" xmlns:xlink="http://www.w3.org/1999/xlink">
    <title>Path</title>
    <g id="Page-1" stroke="none" stroke-width="1" fill="none" fill-rule="evenodd">
        <g id="Web" transform="translate(-732.000000, -1644.000000)" fill="#FFFFFF" fill-rule="nonzero">
            <g id="Group-6" transform="translate(706.000000, 1631.000000)">
                <g id="right-copy-2" transform="translate(93.850000, 24.500000) rotate(-360.000000) translate(-93.850000, -24.500000) translate(8.850000, 0.000000)">
                    <path d="M34.8718109,23.6906857 L28.3093157,17.1281841 C28.1384037,16.957272 27.8615484,16.957272 27.6906775,17.1281841 C27.5197655,17.2990963 27.5197655,17.5759518 27.6906775,17.7468229 L33.5063607,23.5625119 L14.4375134,23.5625119 C14.1956854,23.5625119 14,23.7581975 14,24.0000256 C14,24.2418538 14.1956854,24.4375394 14.4375134,24.4375394 L33.5063607,24.4375394 L27.6906775,30.2531873 C27.5197655,30.4240995 27.5197655,30.700955 27.6906775,30.8718261 C27.776113,30.9572617 27.8880855,31 28.0000171,31 C28.1119486,31 28.2238802,30.9572617 28.3093567,30.8718261 L34.8718519,24.3093245 C35.0427229,24.1384534 35.0427229,23.8615979 34.8718109,23.6906857 Z" id="Path" transform="translate(24.500000, 24.000000) rotate(-90.000000) translate(-24.500000, -24.000000) "></path>
                </g>
            </g>
        </g>
    </g>
</svg>