<?xml version="1.0" encoding="UTF-8"?>
<svg width="38px" height="25px" viewBox="0 0 38 25" version="1.1" xmlns="http://www.w3.org/2000/svg" xmlns:xlink="http://www.w3.org/1999/xlink">
    <title>right copy 2</title>
    <g id="Page-1" stroke="none" stroke-width="1" fill="none" fill-rule="evenodd">
        <g id="Producto" transform="translate(-966.000000, -2927.000000)" fill="#7E7E7E" fill-rule="nonzero">
            <g id="right-copy-2" transform="translate(984.961538, 2939.500000) rotate(-360.000000) translate(-984.961538, -2939.500000) translate(966.692308, 2927.000000)">
                <path d="M36.0818353,11.9476531 L24.5193438,0.228900202 C24.2182131,-0.0763000675 23.7304205,-0.0763000675 23.4293621,0.228900202 C23.1282315,0.534100472 23.1282315,1.02848536 23.4293621,1.33361239 L33.6760421,11.7187712 L0.078549165,11.7187712 C-0.347528648,11.7187712 -0.692307692,12.0682097 -0.692307692,12.5000458 C-0.692307692,12.9318818 -0.347528648,13.2813204 0.078549165,13.2813204 L33.6760421,13.2813204 L23.4293621,23.6664059 C23.1282315,23.9716062 23.1282315,24.4659911 23.4293621,24.7711181 C23.5798913,24.9236816 23.7771763,25 23.9743891,25 C24.1716018,25 24.3688146,24.9236816 24.519416,24.7711181 L36.0819076,13.0523652 C36.3829659,12.7472382 36.3829659,12.2528533 36.0818353,11.9476531 Z" id="Path"></path>
            </g>
        </g>
    </g>
</svg>