<?xml version="1.0" encoding="UTF-8"?>
<svg width="40px" height="33px" viewBox="0 0 40 33" version="1.1" xmlns="http://www.w3.org/2000/svg" xmlns:xlink="http://www.w3.org/1999/xlink">
    <title>right copy 2</title>
    <defs>
        <filter x="-57.1%" y="-85.7%" width="214.3%" height="271.4%" filterUnits="objectBoundingBox" id="filter-1">
            <feOffset dx="0" dy="2" in="SourceAlpha" result="shadowOffsetOuter1"></feOffset>
            <feGaussianBlur stdDeviation="2" in="shadowOffsetOuter1" result="shadowBlurOuter1"></feGaussianBlur>
            <feColorMatrix values="0 0 0 0 0   0 0 0 0 0   0 0 0 0 0  0 0 0 0.5 0" type="matrix" in="shadowBlurOuter1" result="shadowMatrixOuter1"></feColorMatrix>
            <feMerge>
                <feMergeNode in="shadowMatrixOuter1"></feMergeNode>
                <feMergeNode in="SourceGraphic"></feMergeNode>
            </feMerge>
        </filter>
    </defs>
    <g id="Symbols" stroke="none" stroke-width="1" fill="none" fill-rule="evenodd">
        <g id="Footer" transform="translate(-1442.000000, -140.000000)" fill="#FFFFFF" fill-rule="nonzero">
            <g id="Group-2" transform="translate(1156.026169, 138.614864)">
                <g id="right-copy-2" filter="url(#filter-1)" transform="translate(305.500000, 17.723404) rotate(-360.000000) translate(-305.500000, -17.723404) translate(295.000000, 10.723404)">
                    <path d="M20.8718109,6.69068572 L14.3093157,0.128184113 C14.1384037,-0.0427280378 13.8615484,-0.0427280378 13.6906775,0.128184113 C13.5197655,0.299096264 13.5197655,0.575951801 13.6906775,0.746822936 L19.5063607,6.56251186 L0.437513351,6.56251186 C0.195685404,6.56251186 0,6.75819745 0,7.00002563 C0,7.24185382 0.195685404,7.43753941 0.437513351,7.43753941 L19.5063607,7.43753941 L13.6906775,13.2531873 C13.5197655,13.4240995 13.5197655,13.700955 13.6906775,13.8718261 C13.776113,13.9572617 13.8880855,14 14.0000171,14 C14.1119486,14 14.2238802,13.9572617 14.3093567,13.8718261 L20.8718519,7.30932454 C21.0427229,7.1384534 21.0427229,6.86159787 20.8718109,6.69068572 Z" id="Path"></path>
                </g>
            </g>
        </g>
    </g>
</svg>