<?xml version="1.0" encoding="UTF-8"?>
<svg width="15px" height="22px" viewBox="0 0 15 22" version="1.1" xmlns="http://www.w3.org/2000/svg" xmlns:xlink="http://www.w3.org/1999/xlink">
    <title>Path Copy</title>
    <g id="Page-1" stroke="none" stroke-width="1" fill="ffffff" fill-rule="evenodd">
        <g id="Web" transform="translate(-853.000000, -1645.000000)" fill="#ffffff" fill-rule="nonzero">
            <g id="Group-6" transform="translate(706.000000, 1631.000000)">
                <g id="right-copy-2" transform="translate(93.850000, 24.500000) rotate(-360.000000) translate(-93.850000, -24.500000) translate(8.850000, 0.000000)">
                    <path d="M155.871811,24.6906857 L149.309316,18.1281841 C149.138404,17.957272 148.861548,17.957272 148.690677,18.1281841 C148.519765,18.2990963 148.519765,18.5759518 148.690677,18.7468229 L154.506361,24.5625119 L135.437513,24.5625119 C135.195685,24.5625119 135,24.7581975 135,25.0000256 C135,25.2418538 135.195685,25.4375394 135.437513,25.4375394 L154.506361,25.4375394 L148.690677,31.2531873 C148.519765,31.4240995 148.519765,31.700955 148.690677,31.8718261 C148.776113,31.9572617 148.888086,32 149.000017,32 C149.111949,32 149.22388,31.9572617 149.309357,31.8718261 L155.871852,25.3093245 C156.042723,25.1384534 156.042723,24.8615979 155.871811,24.6906857 Z" id="Path-Copy" transform="translate(145.500000, 25.000000) rotate(-270.000000) translate(-145.500000, -25.000000) "></path>
                </g>
            </g>
        </g>
    </g>
</svg>