<?xml version="1.0" encoding="UTF-8"?>
<svg width="22px" height="32px" viewBox="0 0 22 32" version="1.1" xmlns="http://www.w3.org/2000/svg" xmlns:xlink="http://www.w3.org/1999/xlink">
    <title>Group 4</title>
    <g id="Symbols" stroke="none" stroke-width="1" fill="none" fill-rule="evenodd">
        <g id="Footer" transform="translate(-1499.000000, -140.000000)" fill="#000000" fill-rule="nonzero">
            <g id="Group-2" transform="translate(1156.026169, 138.614864)">
                <g id="Group-4" transform="translate(343.000000, 1.723404)">
                    <g id="Group" transform="translate(2.000000, 2.000000)">
                        <g id="iso2" transform="translate(7.000000, 14.000000)">
                            <path d="M8.10486495,12.7102909 C6.59276328,15.6838521 1.50454116,15.1199008 0,14.5266534 C1.20968134,13.7942492 2.11694234,12.029155 2.72178301,10.5423744 L6.36594803,1.81944019 C6.63799411,1.11337806 7.19258217,0.543495823 7.90414778,0.238820653 C8.61571339,-0.0658545164 9.42407174,-0.0795529347 10.1462022,0.200826861 C11.6781559,0.824189776 12.4040097,2.52810614 11.7717115,4.01665285 L8.10486495,12.7102909 Z" id="v3e8b"></path>
                        </g>
                        <g id="iso1">
                            <path d="M7.61063316,26.7591417 C6.15998761,29.673452 1.4015899,29.1152384 0,28.5352761 C1.14229577,27.8538205 1.98324971,26.0994347 2.55790157,24.649529 L11.7032757,1.78451722 C11.971424,1.08545541 12.4977651,0.525721646 13.1658697,0.229132003 C13.8339742,-0.067457639 14.5887778,-0.0764586371 15.263314,0.204120078 C16.6646267,0.800927833 17.353722,2.441767 16.8190788,3.90862897 L7.61063316,26.7591417 Z" id="v3e8c"></path>
                        </g>
                    </g>
                    <path d="M2.95,10 C3.31666667,10 3.65,9.93333333 3.95,9.8 C4.25,9.66666667 4.48666667,9.45 4.66,9.15 C4.83333333,8.85 4.92,8.44666667 4.92,7.94 L4.92,7.94 L4.92,7.76 C4.92,7.41333333 4.87666667,7.13 4.79,6.91 C4.70333333,6.69 4.58333333,6.51 4.43,6.37 C4.27666667,6.23 4.09666667,6.12 3.89,6.04 C4.14333333,5.92666667 4.34833333,5.72833333 4.505,5.445 C4.66166667,5.16166667 4.74,4.81 4.74,4.39 C4.74,3.91666667 4.64833333,3.55833333 4.465,3.315 C4.28166667,3.07166667 4.035,2.90666667 3.725,2.82 C3.415,2.73333333 3.07333333,2.69 2.7,2.69 L2.7,2.69 L1.06,2.69 C0.986666667,2.69 0.918333333,2.71166667 0.855,2.755 C0.791666667,2.79833333 0.76,2.86 0.76,2.94 L0.76,2.94 L0.76,9.75 C0.76,9.81666667 0.788333333,9.875 0.845,9.925 C0.901666667,9.975 0.973333333,10 1.06,10 L1.06,10 L2.95,10 Z M2.72,5.75 L1.42,5.75 L1.42,3.3 L2.68,3.3 C2.96,3.3 3.20333333,3.33166667 3.41,3.395 C3.61666667,3.45833333 3.78,3.57333333 3.9,3.74 C4.02,3.90666667 4.08,4.14666667 4.08,4.46 C4.08,4.93333333 3.97,5.26666667 3.75,5.46 C3.53,5.65333333 3.18666667,5.75 2.72,5.75 L2.72,5.75 Z M2.86,9.39 L1.42,9.39 L1.42,6.32 L2.86,6.32 C3.3,6.32 3.64333333,6.42666667 3.89,6.64 C4.13666667,6.85333333 4.26,7.22 4.26,7.74 L4.26,7.74 L4.26,7.91 C4.26,8.42333333 4.13666667,8.79833333 3.89,9.035 C3.64333333,9.27166667 3.3,9.39 2.86,9.39 L2.86,9.39 Z M7.95,10 C8.03666667,10 8.11333333,9.97833333 8.18,9.935 C8.24666667,9.89166667 8.28,9.82666667 8.28,9.74 L8.28,9.74 L8.28,7.2 C8.28,7.16666667 8.28666667,7.14 8.3,7.12 L8.3,7.12 L10.38,3.15 C10.3933333,3.11 10.4033333,3.075 10.41,3.045 C10.4166667,3.015 10.42,2.99 10.42,2.97 C10.42,2.91 10.4016667,2.86 10.365,2.82 C10.3283333,2.78 10.2833333,2.74833333 10.23,2.725 C10.1766667,2.70166667 10.12,2.69 10.06,2.69 C10.0133333,2.69 9.96833333,2.70666667 9.925,2.74 C9.88166667,2.77333333 9.84,2.82333333 9.8,2.89 L9.8,2.89 L7.95,6.54 L6.11,2.89 C6.07666667,2.82333333 6.03833333,2.77333333 5.995,2.74 C5.95166667,2.70666667 5.90333333,2.69 5.85,2.69 C5.79666667,2.69 5.74166667,2.70166667 5.685,2.725 C5.62833333,2.74833333 5.58166667,2.78 5.545,2.82 C5.50833333,2.86 5.49,2.91 5.49,2.97 C5.49,2.99 5.49333333,3.015 5.5,3.045 C5.50666667,3.075 5.52,3.11 5.54,3.15 L5.54,3.15 L7.61,7.12 C7.61666667,7.14 7.62,7.16666667 7.62,7.2 L7.62,7.2 L7.62,9.74 C7.62,9.82666667 7.655,9.89166667 7.725,9.935 C7.795,9.97833333 7.87,10 7.95,10 Z" id="BY"></path>
                </g>
            </g>
        </g>
    </g>
</svg>