<?xml version="1.0" encoding="UTF-8"?>
<svg width="22px" height="22px" viewBox="0 0 22 22" version="1.1" xmlns="http://www.w3.org/2000/svg" xmlns:xlink="http://www.w3.org/1999/xlink">
    <title>shopping-cart</title>
    <g id="Page-1" stroke="none" stroke-width="1" fill="none" fill-rule="evenodd">
        <g id="Producto" transform="translate(-1066.000000, -586.000000)" fill="#FFFFFF" fill-rule="nonzero">
            <g id="shopping-cart" transform="translate(1066.000000, 586.000000)">
                <path d="M7.5,17 C6.11925776,17 5,18.1193109 5,19.5 C5,20.8807422 6.11931093,22 7.5,22 C8.88074224,22 10,20.8806891 10,19.5 C10.0000532,18.1193109 8.88074224,17 7.5,17 Z M7.5,20.8889302 C6.73293279,20.8889302 6.11112293,20.2671204 6.11112293,19.5000532 C6.11112293,18.732986 6.73293279,18.1111761 7.5,18.1111761 C8.26706721,18.1111761 8.88887707,18.732986 8.88887707,19.5000532 C8.88893024,20.2671204 8.26706721,20.8889302 7.5,20.8889302 Z" id="Shape"></path>
                <path d="M17.5,17 C16.1192578,17 15,18.1193109 15,19.5 C15,20.8807422 16.1193109,22 17.5,22 C18.8806891,22 20,20.8806891 20,19.5 C20,18.1193109 18.8807422,17 17.5,17 Z M17.5,20.8889302 C16.7329328,20.8889302 16.1111229,20.2671204 16.1111229,19.5000532 C16.1111229,18.732986 16.7329328,18.1111761 17.5,18.1111761 C18.2670672,18.1111761 18.8888771,18.732986 18.8888771,19.5000532 C18.8889302,20.2671204 18.2670672,20.8889302 17.5,20.8889302 Z" id="Shape"></path>
                <path d="M21.8959137,3.51479476 C21.7896241,3.39545771 21.6442085,3.32075282 21.4876071,3.30493828 L4.87427958,3.06887485 L4.41492851,1.62623708 C4.09132144,0.66185118 3.21267329,0.0107940532 2.22021315,0 L0.510395512,0 C0.228503226,0 0,0.234858516 0,0.524590987 C0,0.814323458 0.228503226,1.04918197 0.510395512,1.04918197 L2.22021315,1.04918197 C2.77515653,1.0617834 3.26381542,1.42802814 3.44518192,1.96722875 L6.68618609,12.0131286 L6.43101276,12.6163906 C6.14638508,13.3707695 6.23186619,14.2198347 6.6606883,14.8983539 C7.08540731,15.5647737 7.79993172,15.9760523 8.57468368,16 L18.5018739,16 C18.7837662,16 19.0122695,15.7651415 19.0122695,15.475409 C19.0122695,15.1856765 18.7837662,14.950818 18.5018739,14.950818 L8.57463483,14.950818 C8.13711807,14.9395721 7.73437992,14.7030066 7.50279937,14.3212988 C7.27380768,13.94426 7.22676865,13.4797643 7.37521271,13.0622604 L7.57939045,12.5901335 L18.323194,11.4360233 C19.5033218,11.302428 20.4740942,10.4202276 20.7475849,9.23273108 L21.9725537,3.96061426 C22.02775,3.80879464 21.9984422,3.63804778 21.8959137,3.51479476 Z M19.7522917,8.99671785 C19.5866048,9.76113764 18.9551681,10.3249889 18.1956073,10.3868915 L7.57939045,11.5147446 L5.20604399,4.11805682 L20.8496249,4.35412025 L19.7522917,8.99671785 Z" id="Shape"></path>
            </g>
        </g>
    </g>
</svg>