<?xml version="1.0" encoding="UTF-8"?>
<svg width="20px" height="20px" viewBox="0 0 20 20" version="1.1" xmlns="http://www.w3.org/2000/svg" xmlns:xlink="http://www.w3.org/1999/xlink">
    <title>Path</title>
    <g id="Page-1" stroke="none" stroke-width="1" fill="none" fill-rule="evenodd">
        <g id="Producto" transform="translate(-446.000000, -2284.000000)" fill="#FFFFFF" fill-rule="nonzero">
            <path d="M468.134874,2293.13499 L457.735065,2293.13499 L457.735065,2282.73495 C457.735065,2282.0175 457.15259,2281.43503 456.43491,2281.43503 C455.717468,2281.43503 455.134993,2282.0175 455.134993,2282.73495 L455.134993,2293.13499 L444.734946,2293.13499 C444.017504,2293.13499 443.435029,2293.71747 443.435029,2294.43491 C443.435029,2295.15259 444.017504,2295.73506 444.734946,2295.73506 L455.134993,2295.73506 L455.134993,2306.13487 C455.134993,2306.85255 455.717468,2307.43503 456.43491,2307.43503 C457.15259,2307.43503 457.735065,2306.85255 457.735065,2306.13487 L457.735065,2295.73506 L468.134874,2295.73506 C468.852554,2295.73506 469.435029,2295.15259 469.435029,2294.43491 C469.435029,2293.71747 468.852554,2293.13499 468.134874,2293.13499 Z" id="Path" transform="translate(456.435029, 2294.435029) rotate(-45.000000) translate(-456.435029, -2294.435029) "></path>
        </g>
    </g>
</svg>