<?xml version="1.0" encoding="UTF-8"?>
<svg width="48px" height="11px" viewBox="0 0 48 11" version="1.1" xmlns="http://www.w3.org/2000/svg" xmlns:xlink="http://www.w3.org/1999/xlink">
    <title>Group 4</title>
    <g id="Page-1" stroke="none" stroke-width="1" fill="#EFEFEF" fill-rule="evenodd">
        <g id="Producto" transform="translate(-776.000000, -2583.000000)" fill="#75020A" fill-rule="nonzero">
            <g id="Group-4" transform="translate(776.000000, 2583.000000)">
                <g id="cancel-copy-3">
                    <path fill="#EFEFEF" d="M5.32410087,5.08988331 L10.1337462,0.280238022 C10.1978422,0.216121459 10.1978422,0.112188593 10.1337462,0.0480720294 C10.0696296,-0.0160240098 9.96569672,-0.0160240098 9.90158016,0.0480720294 L5.09193488,4.85771731 L0.282289591,0.0480720294 C0.217064739,-0.014915721 0.113131872,-0.0131096206 0.0501235979,0.0521152314 C-0.0113248624,0.115739222 -0.0113248624,0.216614032 0.0501235979,0.280238022 L4.85976888,5.08988331 L0.0501235979,9.89952859 C-0.0151012541,9.96253687 -0.0169073545,10.0664697 0.0461009198,10.1316946 C0.109109194,10.1969194 0.213042061,10.1987255 0.278266913,10.1357173 C0.279642012,10.1344037 0.280976063,10.1330492 0.282289591,10.1316946 L5.09193488,5.3220493 L9.90158016,10.1316946 C9.96680501,10.1947029 10.0707379,10.1928968 10.1337462,10.1276719 C10.1952151,10.0640479 10.1952151,9.96315258 10.1337462,9.89952859 L5.32410087,5.08988331 Z" id="Path"></path>
                </g>
                <g id="cancel-copy-4" transform="translate(18.909091, 0.000000)">
                    <path fill="#EFEFEF" d="M5.32410087,5.08988331 L10.1337462,0.280238022 C10.1978422,0.216121459 10.1978422,0.112188593 10.1337462,0.0480720294 C10.0696296,-0.0160240098 9.96569672,-0.0160240098 9.90158016,0.0480720294 L5.09193488,4.85771731 L0.282289591,0.0480720294 C0.217064739,-0.014915721 0.113131872,-0.0131096206 0.0501235979,0.0521152314 C-0.0113248624,0.115739222 -0.0113248624,0.216614032 0.0501235979,0.280238022 L4.85976888,5.08988331 L0.0501235979,9.89952859 C-0.0151012541,9.96253687 -0.0169073545,10.0664697 0.0461009198,10.1316946 C0.109109194,10.1969194 0.213042061,10.1987255 0.278266913,10.1357173 C0.279642012,10.1344037 0.280976063,10.1330492 0.282289591,10.1316946 L5.09193488,5.3220493 L9.90158016,10.1316946 C9.96680501,10.1947029 10.0707379,10.1928968 10.1337462,10.1276719 C10.1952151,10.0640479 10.1952151,9.96315258 10.1337462,9.89952859 L5.32410087,5.08988331 Z" id="Path"></path>
                </g>
                <g id="cancel-copy-5" transform="translate(37.818182, 0.000000)">
                    <path fill="#EFEFEF" d="M5.32410087,5.08988331 L10.1337462,0.280238022 C10.1978422,0.216121459 10.1978422,0.112188593 10.1337462,0.0480720294 C10.0696296,-0.0160240098 9.96569672,-0.0160240098 9.90158016,0.0480720294 L5.09193488,4.85771731 L0.282289591,0.0480720294 C0.217064739,-0.014915721 0.113131872,-0.0131096206 0.0501235979,0.0521152314 C-0.0113248624,0.115739222 -0.0113248624,0.216614032 0.0501235979,0.280238022 L4.85976888,5.08988331 L0.0501235979,9.89952859 C-0.0151012541,9.96253687 -0.0169073545,10.0664697 0.0461009198,10.1316946 C0.109109194,10.1969194 0.213042061,10.1987255 0.278266913,10.1357173 C0.279642012,10.1344037 0.280976063,10.1330492 0.282289591,10.1316946 L5.09193488,5.3220493 L9.90158016,10.1316946 C9.96680501,10.1947029 10.0707379,10.1928968 10.1337462,10.1276719 C10.1952151,10.0640479 10.1952151,9.96315258 10.1337462,9.89952859 L5.32410087,5.08988331 Z" id="Path"></path>
                </g>
            </g>
        </g>
    </g>
</svg>