<?xml version="1.0" encoding="UTF-8"?>
<svg width="2305px" height="460px" viewBox="0 0 2305 460" version="1.1" xmlns="http://www.w3.org/2000/svg" xmlns:xlink="http://www.w3.org/1999/xlink">
    <title>Group 3</title>
    <g id="Symbols" stroke="none" stroke-width="1" fill="none" fill-rule="evenodd">
        <g id="Footer" transform="translate(704.000000, 1.000000)">
            <g id="Group-3" transform="translate(-702.536102, 0.000000)">
                <polygon id="Path-6" fill="#F4F4F4" transform="translate(1151.281136, 233.686163) scale(-1, 1) translate(-1151.281136, -233.686163) " points="2302.56227 98.4602144 2302.56227 458.646679 0 458.646679 0 84.7442564 44.8088449 84.7442564 81.6051564 70.6905619 99.9161964 74.3132922 118.988186 60.0093032 132.90789 69.7243819 151.474958 46.6717346 169.405595 65.003044 220.772382 8.72564611 246.218996 32.4641052 299.529273 28.6074182 323.573321 56.8648975 360.955004 56.8648975 429.24672 98.4602144 703.611961 98.4602144"></polygon>
                <polyline id="Path-5" stroke="#D3D3D3" stroke-linecap="round" transform="translate(1151.281136, 53.500000) scale(-1, 1) translate(-1151.281136, -53.500000) " points="2302.56227 107 1600.02617 107 480.876872 107 445.355545 84.2066612 432.053245 92.380371 416.747579 76.3534891 403.765792 87.2163919 391.825759 67.8592418 374.559225 92.380371 343.226677 52.5863325 321.590399 76.3534891 289.744269 18.6713173 261.376689 0 232.156216 43.2743356 215.08758 50.4864324 205.391311 37.7450614 178.786687 57.7786636 126.332091 50.4864324 81.1365248 85.7727526 0 85.7727526"></polyline>
            </g>
        </g>
    </g>
</svg>